<svg xmlns="http://www.w3.org/2000/svg" version="1.1" xmlns:xlink="http://www.w3.org/1999/xlink" width="512" height="512" x="0" y="0" viewBox="0 0 24 24" style="enable-background:new 0 0 512 512" xml:space="preserve" class=""><g><path d="M8.092 2.5a2.5 2.5 0 1 1 5 0 2.5 2.5 0 0 1-5 0ZM19 10v2h2.768l-3.479 10H11v-5.571l-2.709-1.596 2.154-5.198 2.106 2.366H17v-2h-3.552l-2.281-2.562a3.99 3.99 0 0 0-3.073-1.438H2.553l-2.08 4.498 1.815.84L3.831 8h1.941l-1.548 3.773c-.553 1.349-.061 2.894 1.199 3.69L9 17.57v4.429H0v2h19.711L24 11.668V9.999h-5ZM5.628 17.905l-1.22-.719c-.176-.111-.33-.243-.488-.371l-.079.184H0v2h5.159l.469-1.095Z" fill="#776871" opacity="1" data-original="#000000" class=""></path></g></svg>